# xmcd
#
# Track frame offsets:
#	150
#	14055
#	29073
#	44260
#	59448
#	69895
#
# Disc length: 1085 seconds
#
# Revision: 0
# Processed by: cddbd v1.5.2PL0 Copyright (c) Steve Scherf et al.
# Submitted via: EasyCDDAExtractor 10.0.5.1
#
DISCID=51043b06
DTITLE=Regan, Amy - And Then There is This
DYEAR=2008
DGENRE=Indie
TTITLE0=Everybody Needs Somewhere To Go
TTITLE1=So In Love
TTITLE2=Carry On
TTITLE3=Some Kind Of Blues
TTITLE4=Nighttime Bird
TTITLE5=And Then There is This
EXTD=
EXTT0=
EXTT1=
EXTT2=
EXTT3=
EXTT4=
EXTT5=
PLAYORDER=
